<svg id="_341b12fc185db6a7fd79aced917e51a2" data-name="341b12fc185db6a7fd79aced917e51a2" xmlns="http://www.w3.org/2000/svg" width="27.94" height="26.996" viewBox="0 0 27.94 26.996">
  <path id="Path_125" data-name="Path 125" d="M49.852,32.125a.931.931,0,0,0-.928.935V44.233a.934.934,0,0,0,.46.811l9.682,5.588a.932.932,0,0,0,1.271-.344A12.111,12.111,0,0,0,49.852,32.125Zm.935,1.907a10.249,10.249,0,0,1,8.373,14.5L50.787,43.7Zm-4.655.872A12.109,12.109,0,1,0,56.616,53.069a.932.932,0,0,0-.344-1.271l-9.214-5.323V35.833a.93.93,0,0,0-.927-.93Z" transform="translate(-34.019 -32.125)" fill="#fff"/>
</svg>
