<svg xmlns="http://www.w3.org/2000/svg" width="26.8" height="26.802" viewBox="0 0 26.8 26.802">
  <g id="Group_9068" data-name="Group 9068" transform="translate(-228 -1.198)">
    <path id="radix-icons_dashboard" d="M5.311,1.6h-.1a5.56,5.56,0,0,0-1.237.085A3.092,3.092,0,0,0,1.683,3.971,5.686,5.686,0,0,0,1.6,5.208v5.154A5.56,5.56,0,0,0,1.685,11.6a3.092,3.092,0,0,0,2.286,2.288,5.686,5.686,0,0,0,1.237.082h5.154a5.56,5.56,0,0,0,1.237-.085A3.093,3.093,0,0,0,13.887,11.6a5.686,5.686,0,0,0,.082-1.237V5.208a5.56,5.56,0,0,0-.085-1.237A3.092,3.092,0,0,0,11.6,1.683,5.686,5.686,0,0,0,10.361,1.6Zm-.86,2.09a4.933,4.933,0,0,1,.86-.029h4.948a4.668,4.668,0,0,1,.86.029,1.031,1.031,0,0,1,.763.763,5.025,5.025,0,0,1,.027.858v4.948a4.668,4.668,0,0,1-.029.86,1.031,1.031,0,0,1-.763.763,5.271,5.271,0,0,1-.858.027H5.311a4.668,4.668,0,0,1-.86-.029,1.031,1.031,0,0,1-.763-.763,5.271,5.271,0,0,1-.027-.858V5.311a4.668,4.668,0,0,1,.029-.86,1.031,1.031,0,0,1,.763-.763ZM19.741,1.6h-.1a5.56,5.56,0,0,0-1.237.085,3.092,3.092,0,0,0-2.288,2.286,5.686,5.686,0,0,0-.082,1.237v5.154a5.56,5.56,0,0,0,.085,1.237A3.093,3.093,0,0,0,18.4,13.887a5.686,5.686,0,0,0,1.237.082h5.154a5.56,5.56,0,0,0,1.237-.085A3.093,3.093,0,0,0,28.317,11.6a5.686,5.686,0,0,0,.082-1.237V5.208a5.56,5.56,0,0,0-.085-1.237,3.092,3.092,0,0,0-2.286-2.288A5.686,5.686,0,0,0,24.792,1.6Zm-.86,2.09a4.933,4.933,0,0,1,.86-.029h4.948a4.668,4.668,0,0,1,.86.029,1.031,1.031,0,0,1,.763.763,5.026,5.026,0,0,1,.027.858v4.948a4.914,4.914,0,0,1-.029.86,1.031,1.031,0,0,1-.763.763,5.025,5.025,0,0,1-.858.027H19.741a4.668,4.668,0,0,1-.86-.029,1.031,1.031,0,0,1-.763-.763,5.271,5.271,0,0,1-.027-.858V5.311a4.668,4.668,0,0,1,.029-.86,1.031,1.031,0,0,1,.763-.763ZM5.208,16.031h5.154a5.56,5.56,0,0,1,1.237.085A3.093,3.093,0,0,1,13.887,18.4a5.686,5.686,0,0,1,.082,1.237v5.154a5.56,5.56,0,0,1-.085,1.237A3.093,3.093,0,0,1,11.6,28.317a5.686,5.686,0,0,1-1.237.082H5.208a5.56,5.56,0,0,1-1.237-.085,3.092,3.092,0,0,1-2.288-2.286A5.686,5.686,0,0,1,1.6,24.792V19.638A5.56,5.56,0,0,1,1.685,18.4a3.092,3.092,0,0,1,2.286-2.288A5.686,5.686,0,0,1,5.208,16.031Zm.1,2.062a4.668,4.668,0,0,0-.86.029,1.031,1.031,0,0,0-.763.763,5.271,5.271,0,0,0-.027.858v4.948a4.668,4.668,0,0,0,.029.86,1.031,1.031,0,0,0,.763.763,5.026,5.026,0,0,0,.858.027h4.948a4.914,4.914,0,0,0,.86-.029,1.031,1.031,0,0,0,.763-.763,5.025,5.025,0,0,0,.027-.858V19.741a4.668,4.668,0,0,0-.029-.86,1.031,1.031,0,0,0-.763-.763,5.271,5.271,0,0,0-.858-.027Zm14.431-2.062h-.1a5.56,5.56,0,0,0-1.237.085A3.093,3.093,0,0,0,16.113,18.4a5.686,5.686,0,0,0-.082,1.237v5.154a5.56,5.56,0,0,0,.085,1.237A3.093,3.093,0,0,0,18.4,28.317a5.56,5.56,0,0,0,1.237.085h5.154a5.56,5.56,0,0,0,1.237-.085,3.092,3.092,0,0,0,2.286-2.286,5.56,5.56,0,0,0,.085-1.237V19.638a5.56,5.56,0,0,0-.085-1.237,3.093,3.093,0,0,0-2.286-2.288,5.686,5.686,0,0,0-1.237-.082Zm-.86,2.09a4.933,4.933,0,0,1,.86-.029h4.948a4.668,4.668,0,0,1,.86.029,1.031,1.031,0,0,1,.763.763,5.026,5.026,0,0,1,.027.858v4.948a4.914,4.914,0,0,1-.029.86,1.031,1.031,0,0,1-.763.763,5.026,5.026,0,0,1-.858.027H19.741a4.914,4.914,0,0,1-.86-.029,1.031,1.031,0,0,1-.763-.763,5.271,5.271,0,0,1-.027-.858V19.741a4.668,4.668,0,0,1,.029-.86,1.031,1.031,0,0,1,.763-.763Z" transform="translate(226.4 -0.402)" fill="#fff" fill-rule="evenodd"/>
    <rect id="Rectangle_4304" data-name="Rectangle 4304" width="10" height="9" transform="translate(229 3)" fill="#fff"/>
    <rect id="Rectangle_4305" data-name="Rectangle 4305" width="9" height="9" transform="translate(244 3)" fill="#fff"/>
    <rect id="Rectangle_4306" data-name="Rectangle 4306" width="10" height="10" transform="translate(244 17)" fill="#fff"/>
    <rect id="Rectangle_4307" data-name="Rectangle 4307" width="10" height="10" transform="translate(229 17)" fill="#fff"/>
  </g>
</svg>
