<svg id="Group_9079" data-name="Group 9079" xmlns="http://www.w3.org/2000/svg" width="33.684" height="36.163" viewBox="0 0 33.684 36.163">
  <g id="Group_9080" data-name="Group 9080">
    <path id="Path_14389" data-name="Path 14389" d="M5.964,79.222H9.5a.565.565,0,0,1,.54.731,14.347,14.347,0,0,0-.374,1.513.561.561,0,0,1-.555.459H4.2a3.055,3.055,0,0,0-1.282.281.339.339,0,0,1-.461-.423,3.66,3.66,0,0,1,3.509-2.561m20.321,0H29a2.2,2.2,0,0,1,2.018,2.212v.595a.339.339,0,0,1-.507.295,3.052,3.052,0,0,0-1.511-.4H16.677a.565.565,0,0,1-.363-1,5.992,5.992,0,0,1,2.664-1.258.563.563,0,0,1,.656.365,2.357,2.357,0,0,0,3.605,1.127l2.381-1.724a1.086,1.086,0,0,1,.663-.215" transform="translate(-2.18 -70.765)" fill="#0089d1" fill-rule="evenodd"/>
    <path id="Path_14390" data-name="Path 14390" d="M2.018,122.28H26.825a2.024,2.024,0,0,1,2.018,2.018v3.664a1.243,1.243,0,0,1-1.24,1.24h-.456a4.5,4.5,0,0,0-4.487,4.487v.291a4.5,4.5,0,0,0,4.487,4.487H27.6a1.243,1.243,0,0,1,1.24,1.24v3.664a2.024,2.024,0,0,1-2.018,2.018H2.018A2.024,2.024,0,0,1,0,143.371V124.3a2.024,2.024,0,0,1,2.018-2.018" transform="translate(0 -109.226)" fill="#0089d1" fill-rule="evenodd"/>
    <path id="Exclusion_1" data-name="Exclusion 1" d="M6.038,5.582H2.645A2.648,2.648,0,0,1,0,2.937V2.645A2.648,2.648,0,0,1,2.645,0H6.038A2.648,2.648,0,0,1,8.683,2.645v.292A2.648,2.648,0,0,1,6.038,5.582ZM2.086,1.816a.985.985,0,1,0,.985.985A.986.986,0,0,0,2.086,1.816Z" transform="translate(24.501 21.817)" fill="#0089d1" stroke="rgba(0,0,0,0)" stroke-width="1"/>
    <path id="Path_14392" data-name="Path 14392" d="M96.182,2.546a10.259,10.259,0,0,0-9.358,9.476.386.386,0,0,0,.71.252c1.8-2.839,3.35-5.293,8.871-5.613a.386.386,0,0,1,.408.379L96.846,8.5a.386.386,0,0,0,.613.3l5.7-4.126a.377.377,0,0,0,.159-.334.4.4,0,0,0-.194-.315L97.1.055a.361.361,0,0,0-.385,0,.379.379,0,0,0-.192.334V2.163a.386.386,0,0,1-.337.383" transform="translate(-77.553 0)" fill="#161e26" fill-rule="evenodd"/>
  </g>
</svg>
