<svg xmlns="http://www.w3.org/2000/svg" xmlns:xlink="http://www.w3.org/1999/xlink" width="73" height="73" viewBox="0 0 73 73">
  <defs>
    <clipPath id="clip-path">
      <rect id="Rectangle_4317" data-name="Rectangle 4317" width="39.702" height="23.487" fill="#0089d1"/>
    </clipPath>
  </defs>
  <g id="Group_9158" data-name="Group 9158" transform="translate(-19.678 -23)">
    <circle id="Ellipse_901" data-name="Ellipse 901" cx="36.5" cy="36.5" r="36.5" transform="translate(19.678 23)" fill="rgba(0,137,209,0.12)"/>
    <g id="Group_9081" data-name="Group 9081" transform="translate(36.762 48.25)">
      <g id="Group_9082" data-name="Group 9082" clip-path="url(#clip-path)">
        <path id="Path_14397" data-name="Path 14397" d="M290.3,155.878a3.865,3.865,0,0,0-2.971-1.39h-5.377l.023.034.9,1.356Z" transform="translate(-255.3 -139.885)" fill="#0089d1"/>
        <path id="Path_14398" data-name="Path 14398" d="M102.964,111.97a11.874,11.874,0,0,0,7.979,1.862l2.047-.249,8.125-.985,5.587-.677a1.836,1.836,0,0,0-.22-3.659H117.5a3.455,3.455,0,0,1-6.132,2.3l-1.431-1.756a.918.918,0,0,1,1.424-1.16l.5.617.616.756a2.874,2.874,0,0,0,1.96.931,1.619,1.619,0,0,0,1.226-1.575c0-.037,0-.075,0-.112a1.609,1.609,0,0,0-.268-.781l-1.4-2.1a10.119,10.119,0,0,0-.838-1.092l-.591-.673a3.006,3.006,0,0,0-.39-.38l-.006-.006q-.148-.119-.3-.229a7.023,7.023,0,0,0-2.266-1.077l-6.584-1.776a8.09,8.09,0,0,0-2.105-.28H98.648v9.661a11.8,11.8,0,0,1,3.214,1.667c.346.253.715.511,1.1.769" transform="translate(-89.323 -90.432)" fill="#0089d1"/>
        <path id="Path_14399" data-name="Path 14399" d="M1.166,98.253H6.323a1.165,1.165,0,0,0,1.166-1.166V84.866A1.165,1.165,0,0,0,6.323,83.7H3.744v4.75a.918.918,0,1,1-1.837,0V83.7H1.166A1.165,1.165,0,0,0,0,84.866V97.087a1.165,1.165,0,0,0,1.166,1.166" transform="translate(0 -75.788)" fill="#0089d1"/>
        <path id="Path_14400" data-name="Path 14400" d="M242,53.988a22.748,22.748,0,0,1-8.306-1.284c-.189-.083-.363-.168-.524-.257v.623a.645.645,0,0,0,.038.212c.406,1.188,4.186,2.119,8.792,2.119s8.387-.931,8.792-2.119a.645.645,0,0,0,.038-.212v-.623c-.161.089-.335.174-.524.257A22.748,22.748,0,0,1,242,53.988" transform="translate(-211.127 -47.489)" fill="#161e26"/>
        <path id="Path_14401" data-name="Path 14401" d="M242,88.366a22.745,22.745,0,0,1-8.306-1.284c-.189-.083-.363-.168-.524-.257v.623a.645.645,0,0,0,.038.212c.406,1.188,4.186,2.119,8.792,2.119s8.387-.931,8.792-2.119a.645.645,0,0,0,.038-.212v-.623c-.161.089-.335.174-.524.257A22.746,22.746,0,0,1,242,88.366" transform="translate(-211.127 -78.618)" fill="#161e26"/>
        <path id="Path_14402" data-name="Path 14402" d="M352.4,122.657a5.663,5.663,0,0,1,2.316,1.132c2.238-.377,3.785-1.016,4.037-1.752a.644.644,0,0,0,.038-.212V121.2c-.161.089-.335.174-.524.257a18.993,18.993,0,0,1-5.866,1.2" transform="translate(-319.085 -109.745)" fill="#161e26"/>
        <path id="Path_14403" data-name="Path 14403" d="M242,0c-4.606,0-8.387.931-8.792,2.119a.653.653,0,0,0-.038.212c0,.439.461.85,1.261,1.2A21,21,0,0,0,242,4.663a21,21,0,0,0,7.569-1.13c.8-.351,1.261-.762,1.261-1.2a.652.652,0,0,0-.038-.212C250.385.931,246.6,0,242,0" transform="translate(-211.127)" fill="#161e26"/>
      </g>
    </g>
  </g>
</svg>
