<svg id="Group_9085" data-name="Group 9085" xmlns="http://www.w3.org/2000/svg" width="28.982" height="31.039" viewBox="0 0 28.982 31.039">
  <g id="Group_9080" data-name="Group 9080">
    <path id="Path_14389" data-name="Path 14389" d="M5.465,79.222H8.5a.485.485,0,0,1,.464.627,12.313,12.313,0,0,0-.321,1.3.482.482,0,0,1-.477.394H3.949a2.622,2.622,0,0,0-1.1.241.291.291,0,0,1-.4-.363,3.141,3.141,0,0,1,3.012-2.2m17.441,0H25.24a1.889,1.889,0,0,1,1.732,1.9v.51a.291.291,0,0,1-.435.253,2.62,2.62,0,0,0-1.3-.342H14.66a.485.485,0,0,1-.311-.857,5.143,5.143,0,0,1,2.287-1.08.483.483,0,0,1,.563.313,2.023,2.023,0,0,0,3.095.967l2.043-1.479a.932.932,0,0,1,.569-.184" transform="translate(-2.217 -71.963)" fill="#fff" fill-rule="evenodd"/>
    <path id="Path_14390" data-name="Path 14390" d="M1.732,122.28H23.023a1.737,1.737,0,0,1,1.732,1.732v3.145a1.067,1.067,0,0,1-1.065,1.065H23.3a3.858,3.858,0,0,0-3.851,3.851v.25a3.858,3.858,0,0,0,3.851,3.851h.391a1.067,1.067,0,0,1,1.065,1.065v3.145a1.737,1.737,0,0,1-1.732,1.732H1.732A1.737,1.737,0,0,1,0,140.383V124.012a1.737,1.737,0,0,1,1.732-1.732" transform="translate(0 -111.076)" fill="#fff" fill-rule="evenodd"/>
    <path id="Exclusion_1" data-name="Exclusion 1" d="M5.182,4.791H2.27A2.273,2.273,0,0,1,0,2.521v-.25A2.273,2.273,0,0,1,2.27,0H5.182A2.273,2.273,0,0,1,7.453,2.271v.25A2.273,2.273,0,0,1,5.182,4.791ZM1.791,1.559a.845.845,0,1,0,.845.845A.846.846,0,0,0,1.791,1.559Z" transform="translate(21.029 18.725)" fill="#fff" stroke="rgba(0,0,0,0)" stroke-width="1"/>
    <path id="Path_14392" data-name="Path 14392" d="M94.856,2.185a8.8,8.8,0,0,0-8.032,8.133.332.332,0,0,0,.609.216c1.543-2.437,2.875-4.543,7.614-4.818a.331.331,0,0,1,.351.325l.028,1.25a.332.332,0,0,0,.526.262l4.891-3.541a.323.323,0,0,0,.137-.286.341.341,0,0,0-.167-.27L95.641.048a.31.31,0,0,0-.331,0,.325.325,0,0,0-.165.286V1.856a.331.331,0,0,1-.289.329" transform="translate(-78.866 0)" fill="#fff" fill-rule="evenodd"/>
  </g>
</svg>
