<svg width="19" height="18" viewBox="0 0 19 18" fill="none" xmlns="http://www.w3.org/2000/svg">
<path d="M10.7668 0C10.6836 0.000262101 10.6013 0.016599 10.5245 0.0480782C10.4477 0.0795573 10.3781 0.125562 10.3194 0.183459C10.2608 0.241356 10.2144 0.310011 10.1829 0.3855C10.1514 0.460989 10.1353 0.541831 10.1357 0.623404V8.0729C10.1349 8.182 10.1634 8.28937 10.2183 8.38427C10.2733 8.47917 10.3526 8.55826 10.4485 8.61362L17.0334 12.3394C17.1791 12.4212 17.3519 12.443 17.514 12.4C17.6761 12.357 17.8141 12.2527 17.8978 12.11C18.6201 10.8827 19.0002 9.49069 19 8.07379C18.9998 6.65688 18.6193 5.26497 17.8967 4.03786C17.1741 2.81074 16.1349 1.79162 14.8834 1.08286C13.6319 0.374092 12.2121 0.000637952 10.7668 0ZM11.4027 1.27148C12.514 1.37109 13.5846 1.73079 14.5245 2.32033C15.4645 2.90987 16.2464 3.71203 16.8044 4.65936C17.3624 5.60669 17.6802 6.67151 17.7312 7.7643C17.7822 8.85709 17.5648 9.94591 17.0973 10.9392L11.4027 7.71753V1.27148ZM8.23678 1.85287C6.79114 1.85266 5.37091 2.2255 4.11884 2.93392C2.86677 3.64234 1.82698 4.66138 1.10397 5.88861C0.38096 7.11584 0.000214592 8.50803 9.06832e-08 9.92524C-0.000214411 11.3424 0.38011 12.7347 1.10275 13.9622C1.82538 15.1896 2.86487 16.209 4.11672 16.9178C5.36858 17.6265 6.7887 17.9998 8.23434 18C9.67998 18.0002 11.1002 17.6274 12.3523 16.9189C13.6043 16.2105 14.6441 15.1915 15.3671 13.9642C15.4506 13.8214 15.4728 13.6519 15.4289 13.4931C15.3851 13.3342 15.2787 13.1989 15.1332 13.1168L8.86657 9.56773V2.47228C8.86657 2.30817 8.80021 2.15075 8.68203 2.03453C8.56386 1.9183 8.4035 1.85274 8.2361 1.85221L8.23678 1.85287Z" fill="white" fill-opacity="0.6"/>
</svg>
