<svg width="18" height="18" viewBox="0 0 18 18" fill="none" xmlns="http://www.w3.org/2000/svg">
<path d="M7 9.5H1C0.867392 9.5 0.740215 9.44732 0.646446 9.35355C0.552678 9.25978 0.5 9.13261 0.5 9V1C0.5 0.867392 0.552678 0.740215 0.646447 0.646447C0.740215 0.552678 0.867392 0.5 1 0.5H7C7.13261 0.5 7.25979 0.552678 7.35355 0.646446C7.44732 0.740215 7.5 0.867392 7.5 1V9C7.5 9.13261 7.44732 9.25978 7.35355 9.35355C7.25978 9.44732 7.13261 9.5 7 9.5ZM0.646446 17.3536C0.552679 17.2598 0.5 17.1326 0.5 17V13C0.5 12.8674 0.552678 12.7402 0.646446 12.6464C0.740215 12.5527 0.867392 12.5 1 12.5H7C7.13261 12.5 7.25978 12.5527 7.35355 12.6464C7.44732 12.7402 7.5 12.8674 7.5 13V17C7.5 17.1326 7.44732 17.2598 7.35355 17.3536C7.25979 17.4473 7.13261 17.5 7 17.5H1C0.867391 17.5 0.740214 17.4473 0.646446 17.3536ZM10.6464 17.3536C10.5527 17.2598 10.5 17.1326 10.5 17V10C10.5 9.86739 10.5527 9.74022 10.6464 9.64645C10.7402 9.55268 10.8674 9.5 11 9.5H17C17.1326 9.5 17.2598 9.55268 17.3536 9.64645C17.4473 9.74021 17.5 9.86739 17.5 10V17C17.5 17.1326 17.4473 17.2598 17.3536 17.3536C17.2598 17.4473 17.1326 17.5 17 17.5H11C10.8674 17.5 10.7402 17.4473 10.6464 17.3536ZM17 6.5H11C10.8674 6.5 10.7402 6.44732 10.6464 6.35355C10.5527 6.25978 10.5 6.13261 10.5 6V1C10.5 0.867392 10.5527 0.740215 10.6464 0.646446C10.7402 0.552678 10.8674 0.5 11 0.5H17C17.1326 0.5 17.2598 0.552679 17.3536 0.646446C17.4473 0.740214 17.5 0.867391 17.5 1V6C17.5 6.13261 17.4473 6.25979 17.3536 6.35355C17.2598 6.44732 17.1326 6.5 17 6.5Z" fill="white" stroke="white"/>
</svg>
