<svg width="22" height="22" viewBox="0 0 22 22" fill="none" xmlns="http://www.w3.org/2000/svg">
<path d="M12.8571 6.42858C12.8571 7.62244 12.5247 8.79272 11.897 9.80828C11.2694 10.8238 10.3713 11.6446 9.30351 12.1785C8.23569 12.7124 7.04028 12.9384 5.85125 12.8312C4.66221 12.724 3.52652 12.2878 2.57143 11.5714V18.2143C2.57143 19.0668 2.91007 19.8843 3.51287 20.4871C4.11566 21.0899 4.93323 21.4286 5.78571 21.4286H12.8571V16.0714C12.8571 15.219 13.1958 14.4014 13.7986 13.7986C14.4014 13.1958 15.2189 12.8571 16.0714 12.8571H21.4286V5.78572C21.4286 4.93324 21.0899 4.11567 20.4871 3.51288C19.8843 2.91008 19.0668 2.57143 18.2143 2.57143H11.5714C12.4079 3.6832 12.8593 5.03728 12.8571 6.42858ZM14.1943 21.4286H14.1429V16.0714C14.1429 15.5599 14.346 15.0694 14.7077 14.7077C15.0694 14.3461 15.5599 14.1429 16.0714 14.1429H21.4286V14.1943L14.1943 21.4286ZM6.42857 12C7.9062 12 9.32332 11.413 10.3682 10.3682C11.413 9.32333 12 7.90621 12 6.42858C12 4.95094 11.413 3.53383 10.3682 2.48898C9.32332 1.44414 7.9062 0.857147 6.42857 0.857147C4.95093 0.857147 3.53382 1.44414 2.48897 2.48898C1.44413 3.53383 0.85714 4.95094 0.85714 6.42858C0.85714 7.90621 1.44413 9.32333 2.48897 10.3682C3.53382 11.413 4.95093 12 6.42857 12ZM6.42857 2.57143C6.54223 2.57143 6.65124 2.61659 6.73161 2.69696C6.81199 2.77733 6.85714 2.88634 6.85714 3V6H9.85714C9.9708 6 10.0798 6.04516 10.1602 6.12553C10.2406 6.2059 10.2857 6.31491 10.2857 6.42858C10.2857 6.54224 10.2406 6.65125 10.1602 6.73162C10.0798 6.81199 9.9708 6.85715 9.85714 6.85715H6.85714V9.85715C6.85714 9.97081 6.81199 10.0798 6.73161 10.1602C6.65124 10.2406 6.54223 10.2857 6.42857 10.2857C6.3149 10.2857 6.2059 10.2406 6.12552 10.1602C6.04515 10.0798 6 9.97081 6 9.85715V6.85715H3C2.88633 6.85715 2.77732 6.81199 2.69695 6.73162C2.61658 6.65125 2.57143 6.54224 2.57143 6.42858C2.57143 6.31491 2.61658 6.2059 2.69695 6.12553C2.77732 6.04516 2.88633 6 3 6H6V3C6 2.88634 6.04515 2.77733 6.12552 2.69696C6.2059 2.61659 6.3149 2.57143 6.42857 2.57143Z" fill="white" fill-opacity="0.6"/>
</svg>
